<svg xmlns="http://www.w3.org/2000/svg" width="460" height="220" viewBox="0 0 460 220" font-family="'Segoe UI', Roboto, Helvetica, Arial, sans-serif">
  <defs>
    <filter id="sh" x="-20%" y="-20%" width="140%" height="140%">
      <feDropShadow dx="0" dy="2" stdDeviation="4" flood-color="#0f172a" flood-opacity="0.18"/>
    </filter>
  </defs>
  <g filter="url(#sh)">
    <rect x="8.5" y="8.5" width="443" height="193" rx="8" fill="#ffffff" stroke="#c9ced6"/>
    <path d="M8 16 a8 8 0 0 1 8 -8 h427 a8 8 0 0 1 8 8 v22 h-451 z" fill="#f3f4f6"/>
    <line x1="8" y1="38" x2="452" y2="38" stroke="#e5e7eb"/>
    <text x="24" y="27" font-size="13" fill="#374151" font-weight="600">Entrada</text>
    <text x="430" y="28" font-size="16" fill="#6b7280" text-anchor="middle">&#215;</text>
    <circle cx="50" cy="92" r="17" fill="#2563eb"/>
    <text x="50" y="99" font-size="19" fill="#ffffff" text-anchor="middle" font-weight="700">?</text>
    <text x="84" y="86" font-size="14.5" fill="#111827">Primeiro número:</text>
    <rect x="84" y="102" width="304" height="32" rx="4" fill="#ffffff" stroke="#9ca3af"/>
    <text x="98" y="123" font-size="14.5" fill="#111827">4</text>
    <rect x="110" y="108" width="1.6" height="20" fill="#111827"/>
    <rect x="242" y="160" width="66" height="30" rx="6" fill="#2563eb"/>
    <text x="275" y="180" font-size="13" fill="#ffffff" text-anchor="middle" font-weight="600">OK</text>
    <rect x="316" y="160" width="96" height="30" rx="6" fill="#f3f4f6" stroke="#d1d5db"/>
    <text x="364" y="180" font-size="13" fill="#374151" text-anchor="middle" font-weight="600">Cancelar</text>
  </g>
</svg>
